<svg width="228" height="45" viewBox="0 0 228 45" fill="none" xmlns="http://www.w3.org/2000/svg">
<rect y="11.1333" width="27" height="22.2095" fill="#0D75FF" fill-opacity="0.9"/>
<rect x="27" y="0.0285645" width="27" height="22.2095" fill="#0D75FF"/>
<rect x="21" y="22.2381" width="27" height="22.2095" fill="#0D75FF" fill-opacity="0.8"/>
<path d="M74.68 36.1606C73.36 36.1606 72.364 35.9326 71.692 35.4766C71.02 35.0446 70.684 34.3126 70.684 33.2806C70.684 33.2086 70.744 33.1726 70.864 33.1726C71.032 33.1726 71.332 33.2326 71.764 33.3526C72.196 33.4726 73.024 33.5326 74.248 33.5326C76.312 33.5326 78.22 33.3046 79.972 32.8486C81.724 32.3686 83.236 31.7206 84.508 30.9046C85.804 30.0886 86.8 29.1766 87.496 28.1686C88.216 27.1366 88.576 26.0806 88.576 25.0006C88.576 24.0166 88.3 23.2246 87.748 22.6246C87.196 22.0246 86.464 21.5686 85.552 21.2566C84.664 20.9446 83.692 20.7406 82.636 20.6446C81.58 20.5246 80.536 20.4646 79.504 20.4646C79.048 20.4646 78.58 20.4766 78.1 20.5006C77.644 20.5006 77.212 20.5006 76.804 20.5006C76.252 22.4446 75.712 24.4006 75.184 26.3686C74.656 28.3366 74.116 30.2446 73.564 32.0926C72.964 32.0926 72.46 31.9246 72.052 31.5886C71.644 31.2526 71.44 30.8446 71.44 30.3646C71.44 30.0766 71.5 29.7406 71.62 29.3566C71.74 28.9726 71.848 28.6246 71.944 28.3126C72.088 27.8326 72.34 27.0286 72.7 25.9006C73.06 24.7726 73.492 23.4526 73.996 21.9406C74.524 20.4286 75.1 18.8446 75.724 17.1886C76.348 15.5326 76.984 13.9126 77.632 12.3286C78.304 10.7446 78.952 9.34056 79.576 8.11656C78.568 8.28456 77.716 8.52456 77.02 8.83656C76.348 9.14856 75.82 9.43656 75.436 9.70056C75.052 9.94056 74.776 10.0606 74.608 10.0606C74.488 10.0606 74.332 10.0126 74.14 9.91656C73.972 9.79656 73.816 9.66456 73.672 9.52056C73.528 9.35256 73.456 9.20856 73.456 9.08856C74.656 8.58456 75.904 8.12856 77.2 7.72056C78.52 7.31256 80.116 7.10856 81.988 7.10856C82.78 7.10856 83.656 7.18056 84.616 7.32456C85.576 7.44456 86.488 7.70856 87.352 8.11656C88.216 8.50056 88.924 9.07656 89.476 9.84456C90.028 10.5886 90.304 11.5846 90.304 12.8326C90.304 14.0086 90.052 15.0166 89.548 15.8566C89.044 16.6726 88.384 17.3566 87.568 17.9086C86.752 18.4366 85.864 18.8566 84.904 19.1686C83.944 19.4806 82.996 19.7086 82.06 19.8526C83.836 19.9486 85.264 20.2006 86.344 20.6086C87.448 21.0166 88.276 21.5086 88.828 22.0846C89.404 22.6366 89.788 23.2246 89.98 23.8486C90.172 24.4726 90.268 25.0726 90.268 25.6486C90.268 27.0406 89.908 28.3006 89.188 29.4286C88.468 30.5566 87.52 31.5406 86.344 32.3806C85.168 33.2206 83.884 33.9166 82.492 34.4686C81.1 35.0446 79.72 35.4646 78.352 35.7286C76.984 36.0166 75.76 36.1606 74.68 36.1606ZM77.02 19.6726C78.34 19.6246 79.648 19.4806 80.944 19.2406C82.264 18.9766 83.464 18.5686 84.544 18.0166C85.624 17.4646 86.488 16.7446 87.136 15.8566C87.808 14.9686 88.144 13.8646 88.144 12.5446C88.144 11.2966 87.844 10.3366 87.244 9.66456C86.668 8.99256 85.912 8.52456 84.976 8.26056C84.064 7.99656 83.092 7.86456 82.06 7.86456C81.94 7.86456 81.82 7.86456 81.7 7.86456C81.604 7.86456 81.496 7.87656 81.376 7.90056C80.512 9.58056 79.72 11.4286 79 13.4446C78.304 15.4606 77.644 17.5366 77.02 19.6726ZM94.3863 34.1806C93.3543 34.1806 92.6223 33.8566 92.1903 33.2086C91.7583 32.5846 91.5423 31.8166 91.5423 30.9046C91.5423 30.1606 91.6623 29.3926 91.9023 28.6006C92.1423 27.8086 92.4543 27.0646 92.8383 26.3686C93.2463 25.6726 93.6903 25.1086 94.1703 24.6766C94.6743 24.2446 95.1783 24.0286 95.6823 24.0286C95.8023 24.0286 95.9223 24.0526 96.0423 24.1006C96.1863 24.1246 96.3183 24.1606 96.4383 24.2086C96.2223 24.4006 95.9583 24.7606 95.6463 25.2886C95.3583 25.7926 95.0823 26.3806 94.8183 27.0526C94.5543 27.7006 94.3263 28.3486 94.1343 28.9966C93.9663 29.6446 93.8823 30.1966 93.8823 30.6526C93.8823 31.3726 94.0023 31.9006 94.2423 32.2366C94.4823 32.5486 94.7943 32.7046 95.1783 32.7046C95.6823 32.7046 96.2823 32.4406 96.9783 31.9126C97.6743 31.3606 98.3583 30.6646 99.0303 29.8246C98.3583 29.2726 97.8303 28.5526 97.4463 27.6646C97.0863 26.7526 96.9063 25.8286 96.9063 24.8926C96.9063 24.1006 97.0383 23.3566 97.3023 22.6606C97.5903 21.9646 97.9983 21.4126 98.5263 21.0046C99.0543 20.5726 99.6903 20.3566 100.434 20.3566C101.418 20.3566 102.078 20.6206 102.414 21.1486C102.75 21.6766 102.918 22.3366 102.918 23.1286C102.918 24.0646 102.69 25.1086 102.234 26.2606C101.778 27.3886 101.202 28.4806 100.506 29.5366C100.938 29.7766 101.394 29.8966 101.874 29.8966C102.258 29.8966 102.69 29.8246 103.17 29.6806C103.65 29.5126 104.118 29.2366 104.574 28.8526C105.054 28.4686 105.438 27.9526 105.726 27.3046L106.158 27.6646C105.678 28.7926 104.994 29.5966 104.106 30.0766C103.242 30.5326 102.414 30.7606 101.622 30.7606C101.31 30.7606 101.01 30.7366 100.722 30.6886C100.434 30.6166 100.158 30.5206 99.8943 30.4006C99.0783 31.4806 98.1783 32.3806 97.1943 33.1006C96.2343 33.8206 95.2983 34.1806 94.3863 34.1806ZM99.6783 28.8886C100.278 28.0006 100.77 27.0766 101.154 26.1166C101.562 25.1326 101.766 24.2086 101.766 23.3446C101.766 22.6486 101.658 22.1446 101.442 21.8326C101.25 21.4966 100.998 21.3286 100.686 21.3286C100.206 21.3286 99.7143 21.6766 99.2103 22.3726C98.7063 23.0686 98.4543 23.9446 98.4543 25.0006C98.4543 25.6966 98.5503 26.4046 98.7423 27.1246C98.9583 27.8206 99.2703 28.4086 99.6783 28.8886ZM107.535 34.1806C106.503 34.1806 105.771 33.8566 105.339 33.2086C104.907 32.5846 104.691 31.8166 104.691 30.9046C104.691 30.1606 104.811 29.3926 105.051 28.6006C105.291 27.8086 105.603 27.0646 105.987 26.3686C106.395 25.6726 106.839 25.1086 107.319 24.6766C107.823 24.2446 108.327 24.0286 108.831 24.0286C108.951 24.0286 109.071 24.0526 109.191 24.1006C109.335 24.1246 109.467 24.1606 109.587 24.2086C109.371 24.4006 109.107 24.7606 108.795 25.2886C108.507 25.7926 108.231 26.3806 107.967 27.0526C107.703 27.7006 107.475 28.3486 107.283 28.9966C107.115 29.6446 107.031 30.1966 107.031 30.6526C107.031 31.3726 107.151 31.9006 107.391 32.2366C107.631 32.5486 107.943 32.7046 108.327 32.7046C108.831 32.7046 109.431 32.4406 110.127 31.9126C110.823 31.3606 111.507 30.6646 112.179 29.8246C111.507 29.2726 110.979 28.5526 110.595 27.6646C110.235 26.7526 110.055 25.8286 110.055 24.8926C110.055 24.1006 110.187 23.3566 110.451 22.6606C110.739 21.9646 111.147 21.4126 111.675 21.0046C112.203 20.5726 112.839 20.3566 113.583 20.3566C114.567 20.3566 115.227 20.6206 115.563 21.1486C115.899 21.6766 116.067 22.3366 116.067 23.1286C116.067 24.0646 115.839 25.1086 115.383 26.2606C114.927 27.3886 114.351 28.4806 113.655 29.5366C114.087 29.7766 114.543 29.8966 115.023 29.8966C115.407 29.8966 115.839 29.8246 116.319 29.6806C116.799 29.5126 117.267 29.2366 117.723 28.8526C118.203 28.4686 118.587 27.9526 118.875 27.3046L119.307 27.6646C118.827 28.7926 118.143 29.5966 117.255 30.0766C116.391 30.5326 115.563 30.7606 114.771 30.7606C114.459 30.7606 114.159 30.7366 113.871 30.6886C113.583 30.6166 113.307 30.5206 113.043 30.4006C112.227 31.4806 111.327 32.3806 110.343 33.1006C109.383 33.8206 108.447 34.1806 107.535 34.1806ZM112.827 28.8886C113.427 28.0006 113.919 27.0766 114.303 26.1166C114.711 25.1326 114.915 24.2086 114.915 23.3446C114.915 22.6486 114.807 22.1446 114.591 21.8326C114.399 21.4966 114.147 21.3286 113.835 21.3286C113.355 21.3286 112.863 21.6766 112.359 22.3726C111.855 23.0686 111.603 23.9446 111.603 25.0006C111.603 25.6966 111.699 26.4046 111.891 27.1246C112.107 27.8206 112.419 28.4086 112.827 28.8886ZM128.891 34.3966C128.219 34.3966 127.643 34.1686 127.163 33.7126C126.683 33.2566 126.299 32.6806 126.011 31.9846C125.747 31.2886 125.543 30.5806 125.399 29.8606C125.279 29.1166 125.219 28.4686 125.219 27.9166C125.483 27.9166 125.867 27.8566 126.371 27.7366C126.875 27.5926 127.391 27.3886 127.919 27.1246C128.447 26.8366 128.891 26.4766 129.251 26.0446C129.635 25.5886 129.827 25.0606 129.827 24.4606C129.827 23.9566 129.647 23.5606 129.287 23.2726C128.927 22.9846 128.507 22.8406 128.027 22.8406C127.283 22.8406 126.587 23.1046 125.939 23.6326C125.291 24.1366 124.703 24.8086 124.175 25.6486C123.671 26.4646 123.215 27.3406 122.807 28.2766C122.399 29.2126 122.051 30.1006 121.763 30.9406C121.475 31.7806 121.235 32.4766 121.043 33.0286C120.899 33.4606 120.695 33.7486 120.431 33.8926C120.167 34.0606 119.891 34.1446 119.603 34.1446C119.195 34.1446 118.895 33.9766 118.703 33.6406C118.535 33.3046 118.427 32.8846 118.379 32.3806C118.355 31.8526 118.343 31.3126 118.343 30.7606C118.343 29.5126 118.547 28.0726 118.955 26.4406C119.363 24.8086 119.903 23.1166 120.575 21.3646C121.271 19.5886 122.027 17.8726 122.843 16.2166C123.659 14.5606 124.475 13.0606 125.291 11.7166C126.107 10.3726 126.863 9.30456 127.559 8.51256C128.255 7.72056 128.819 7.32456 129.251 7.32456C129.587 7.32456 129.851 7.55256 130.043 8.00856C130.259 8.46456 130.367 9.01656 130.367 9.66456C130.367 10.4806 130.187 11.4046 129.827 12.4366C129.467 13.4446 128.951 14.4646 128.279 15.4966C127.631 16.5286 126.851 17.5006 125.939 18.4126C125.051 19.3246 124.079 20.1046 123.023 20.7526C122.231 22.6966 121.631 24.5926 121.223 26.4406C120.839 28.2646 120.647 29.8006 120.647 31.0486C121.031 30.0886 121.487 29.0326 122.015 27.8806C122.567 26.7286 123.191 25.6246 123.887 24.5686C124.583 23.5126 125.339 22.6486 126.155 21.9766C126.971 21.3046 127.823 20.9686 128.711 20.9686C129.599 20.9686 130.355 21.2806 130.979 21.9046C131.603 22.5286 131.915 23.2846 131.915 24.1726C131.915 24.9406 131.711 25.6006 131.303 26.1526C130.919 26.6806 130.439 27.1126 129.863 27.4486C129.311 27.7606 128.747 28.0006 128.171 28.1686C127.619 28.3126 127.163 28.3846 126.803 28.3846C126.827 28.5766 126.899 28.9246 127.019 29.4286C127.139 29.9326 127.307 30.4606 127.523 31.0126C127.763 31.5646 128.051 32.0446 128.387 32.4526C128.723 32.8366 129.131 33.0286 129.611 33.0286C130.307 33.0286 130.967 32.7646 131.591 32.2366C132.215 31.7086 132.803 31.0126 133.355 30.1486C133.931 29.2606 134.459 28.2646 134.939 27.1606L135.299 27.5206C134.963 28.6966 134.447 29.8126 133.751 30.8686C133.055 31.9006 132.275 32.7406 131.411 33.3886C130.571 34.0606 129.731 34.3966 128.891 34.3966ZM123.635 19.3126C124.739 18.4246 125.699 17.4166 126.515 16.2886C127.355 15.1606 128.003 14.0806 128.459 13.0486C128.915 11.9926 129.143 11.1646 129.143 10.5646C129.143 10.4446 129.131 10.3606 129.107 10.3126C129.107 10.2646 129.083 10.2406 129.035 10.2406C128.795 10.2406 128.375 10.6606 127.775 11.5006C127.199 12.3406 126.539 13.4566 125.795 14.8486C125.051 16.2166 124.331 17.7046 123.635 19.3126ZM141.574 36.1606C140.278 36.1606 139.054 35.9206 137.902 35.4406C136.75 34.9846 135.814 34.2766 135.094 33.3166C134.398 32.3566 134.05 31.1566 134.05 29.7166C134.05 28.4686 134.29 27.4966 134.77 26.8006C135.274 26.1046 135.886 25.6126 136.606 25.3246C137.326 25.0366 138.01 24.8926 138.658 24.8926C138.01 25.5886 137.518 26.3566 137.182 27.1966C136.846 28.0366 136.678 28.8766 136.678 29.7166C136.678 30.6046 136.87 31.4326 137.254 32.2006C137.662 32.9686 138.274 33.5806 139.09 34.0366C139.906 34.5166 140.938 34.7566 142.186 34.7566C143.266 34.7566 144.322 34.5526 145.354 34.1446C146.386 33.7606 147.226 33.1846 147.874 32.4166C148.546 31.6246 148.882 30.6526 148.882 29.5006C148.882 28.4686 148.618 27.5806 148.09 26.8366C147.562 26.0926 146.878 25.4326 146.038 24.8566C145.222 24.2806 144.346 23.7286 143.41 23.2006C142.474 22.6726 141.586 22.1206 140.746 21.5446C139.93 20.9446 139.258 20.2606 138.73 19.4926C138.202 18.7246 137.938 17.8006 137.938 16.7206C137.938 15.7126 138.178 14.6566 138.658 13.5526C139.138 12.4486 139.822 11.4046 140.71 10.4206C141.622 9.43656 142.702 8.64456 143.95 8.04456C145.222 7.42056 146.638 7.10856 148.198 7.10856C149.614 7.10856 150.598 7.45656 151.15 8.15256C151.702 8.82456 151.978 9.67656 151.978 10.7086C151.978 11.5726 151.822 12.5086 151.51 13.5166C151.222 14.5006 150.862 15.4486 150.43 16.3606C149.998 17.2486 149.59 18.0046 149.206 18.6286C148.774 18.5326 148.462 18.3526 148.27 18.0886C148.102 17.8006 148.018 17.4646 148.018 17.0806C148.018 16.5766 148.126 16.0006 148.342 15.3526C148.558 14.7046 148.798 14.0326 149.062 13.3366C149.35 12.6406 149.602 11.9686 149.818 11.3206C150.034 10.6486 150.142 10.0486 150.142 9.52056C150.142 9.04056 149.998 8.66856 149.71 8.40456C149.422 8.11656 148.894 7.97256 148.126 7.97256C146.998 7.97256 145.954 8.23656 144.994 8.76456C144.034 9.29256 143.194 9.97656 142.474 10.8166C141.754 11.6326 141.19 12.4966 140.782 13.4086C140.398 14.3206 140.206 15.1486 140.206 15.8926C140.206 16.7806 140.458 17.5486 140.962 18.1966C141.49 18.8206 142.162 19.3966 142.978 19.9246C143.794 20.4286 144.658 20.9446 145.57 21.4726C146.506 21.9766 147.382 22.5406 148.198 23.1646C149.014 23.7886 149.674 24.5326 150.178 25.3966C150.706 26.2366 150.97 27.2686 150.97 28.4926C150.97 29.7406 150.694 30.8446 150.142 31.8046C149.59 32.7406 148.846 33.5326 147.91 34.1806C146.998 34.8286 145.99 35.3206 144.886 35.6566C143.782 35.9926 142.678 36.1606 141.574 36.1606ZM155.258 34.3966C154.802 34.3966 154.442 34.0126 154.178 33.2446C153.914 32.4766 153.782 31.6126 153.782 30.6526C153.782 29.5006 153.974 28.1326 154.358 26.5486C154.742 24.9646 155.246 23.2966 155.87 21.5446C156.494 19.7926 157.19 18.0766 157.958 16.3966C158.75 14.7166 159.554 13.1926 160.37 11.8246C161.186 10.4566 161.954 9.36456 162.674 8.54856C163.394 7.73256 164.018 7.32456 164.546 7.32456C164.978 7.32456 165.278 7.58856 165.446 8.11656C165.638 8.62056 165.734 9.11256 165.734 9.59256C165.734 10.2646 165.578 11.0806 165.266 12.0406C164.978 13.0006 164.57 14.0326 164.042 15.1366C163.514 16.2166 162.902 17.2846 162.206 18.3406C161.51 19.3966 160.754 20.3686 159.938 21.2566C159.122 22.1206 158.294 22.8046 157.454 23.3086C157.166 24.0046 156.914 24.7846 156.698 25.6486C156.506 26.5126 156.362 27.3646 156.266 28.2046C156.17 29.0206 156.122 29.7526 156.122 30.4006C156.122 30.6646 156.122 30.8926 156.122 31.0846C156.146 31.2766 156.17 31.4566 156.194 31.6246C156.53 30.6406 156.89 29.6926 157.274 28.7806C157.682 27.8446 158.114 26.9926 158.57 26.2246C159.026 25.4326 159.506 24.7486 160.01 24.1726C160.538 23.5726 161.09 23.1166 161.666 22.8046C162.242 22.4686 162.854 22.3006 163.502 22.3006C164.174 22.3006 164.702 22.4686 165.086 22.8046C165.494 23.1166 165.782 23.5246 165.95 24.0286C166.142 24.5086 166.238 25.0126 166.238 25.5406C166.238 26.2846 166.106 27.0046 165.842 27.7006C165.602 28.3966 165.35 29.0686 165.086 29.7166C164.822 30.3646 164.69 30.9886 164.69 31.5886C164.69 32.0686 164.786 32.4166 164.978 32.6326C165.194 32.8486 165.458 32.9566 165.77 32.9566C166.322 32.9566 166.934 32.6926 167.606 32.1646C168.302 31.6366 168.986 30.9406 169.658 30.0766C170.33 29.1886 170.906 28.2286 171.386 27.1966L171.854 27.6286C171.35 28.8046 170.738 29.8726 170.018 30.8326C169.298 31.7686 168.506 32.5126 167.642 33.0646C166.778 33.6166 165.878 33.8926 164.942 33.8926C164.126 33.8926 163.502 33.6766 163.07 33.2446C162.662 32.8126 162.458 32.2726 162.458 31.6246C162.458 31.1206 162.554 30.5566 162.746 29.9326C162.938 29.3086 163.118 28.6726 163.286 28.0246C163.478 27.3766 163.574 26.7646 163.574 26.1886C163.574 25.5646 163.442 25.1206 163.178 24.8566C162.914 24.5926 162.59 24.4606 162.206 24.4606C161.606 24.4606 161.066 24.7006 160.586 25.1806C160.106 25.6606 159.662 26.2846 159.254 27.0526C158.87 27.7966 158.498 28.5886 158.138 29.4286C157.802 30.2686 157.478 31.0726 157.166 31.8406C156.854 32.5846 156.542 33.1966 156.23 33.6766C155.918 34.1566 155.594 34.3966 155.258 34.3966ZM157.922 21.9046C158.594 21.3766 159.242 20.7046 159.866 19.8886C160.514 19.0726 161.114 18.2086 161.666 17.2966C162.218 16.3606 162.71 15.4486 163.142 14.5606C163.574 13.6726 163.91 12.8686 164.15 12.1486C164.39 11.4286 164.51 10.8886 164.51 10.5286C164.51 10.4086 164.498 10.3366 164.474 10.3126C164.45 10.2646 164.414 10.2406 164.366 10.2406C164.198 10.2406 163.85 10.5766 163.322 11.2486C162.818 11.8966 162.23 12.7726 161.558 13.8766C160.886 14.9806 160.226 16.2286 159.578 17.6206C158.93 19.0126 158.378 20.4406 157.922 21.9046ZM174.576 34.6126C173.112 34.6126 172.008 34.2046 171.264 33.3886C170.543 32.5966 170.183 31.6126 170.183 30.4366C170.183 29.3566 170.447 28.2166 170.976 27.0166C171.528 25.8166 172.248 24.6886 173.136 23.6326C174.048 22.5766 175.044 21.7246 176.124 21.0766C177.204 20.4046 178.272 20.0686 179.328 20.0686C179.88 20.0686 180.384 20.2126 180.84 20.5006C181.32 20.7886 181.56 21.3766 181.56 22.2646C181.56 23.1766 181.284 24.0406 180.732 24.8566C180.204 25.6486 179.496 26.3566 178.608 26.9806C177.744 27.6046 176.784 28.1206 175.728 28.5286C174.696 28.9126 173.664 29.1526 172.632 29.2486C172.584 29.4886 172.548 29.7166 172.524 29.9326C172.5 30.1486 172.488 30.3526 172.488 30.5446C172.488 30.9046 172.524 31.2646 172.596 31.6246C172.692 31.9846 172.848 32.3206 173.063 32.6326C173.28 32.9206 173.568 33.1486 173.928 33.3166C174.312 33.4846 174.78 33.5686 175.332 33.5686C176.364 33.5686 177.384 33.2806 178.392 32.7046C179.4 32.1046 180.336 31.3246 181.2 30.3646C182.064 29.4046 182.796 28.3486 183.396 27.1966L183.828 27.5206C183.18 28.9606 182.352 30.2086 181.344 31.2646C180.36 32.3206 179.28 33.1366 178.104 33.7126C176.952 34.3126 175.776 34.6126 174.576 34.6126ZM172.812 28.5646C173.46 28.3486 174.192 28.0366 175.008 27.6286C175.824 27.1966 176.604 26.6926 177.348 26.1166C178.116 25.5406 178.74 24.9046 179.22 24.2086C179.724 23.5126 179.976 22.7806 179.976 22.0126C179.976 21.7486 179.928 21.5446 179.832 21.4006C179.736 21.2566 179.532 21.1846 179.22 21.1846C178.644 21.1846 178.032 21.4126 177.384 21.8686C176.736 22.3006 176.112 22.8766 175.512 23.5966C174.912 24.3166 174.372 25.1086 173.892 25.9726C173.412 26.8366 173.052 27.7006 172.812 28.5646ZM185.664 34.1086C184.632 34.1086 183.888 33.7486 183.432 33.0286C183 32.3326 182.784 31.4566 182.784 30.4006C182.784 29.2486 183 27.8806 183.432 26.2966C183.864 24.7126 184.428 23.0446 185.124 21.2926C185.844 19.5406 186.624 17.8366 187.464 16.1806C188.304 14.5006 189.144 12.9766 189.984 11.6086C190.824 10.2406 191.592 9.14856 192.288 8.33256C193.008 7.51656 193.572 7.10856 193.98 7.10856C194.244 7.10856 194.46 7.26456 194.628 7.57656C194.796 7.86456 194.928 8.22456 195.024 8.65656C195.12 9.06456 195.168 9.43656 195.168 9.77256C195.168 10.4206 195 11.2726 194.664 12.3286C194.352 13.3606 193.896 14.5246 193.296 15.8206C192.72 17.0926 192.024 18.3886 191.208 19.7086C190.416 21.0046 189.54 22.2526 188.58 23.4526C187.644 24.6526 186.648 25.6846 185.592 26.5486C185.448 27.1966 185.328 27.8326 185.232 28.4566C185.16 29.0566 185.124 29.6326 185.124 30.1846C185.124 31.1206 185.256 31.8166 185.52 32.2726C185.784 32.7286 186.18 32.9566 186.708 32.9566C187.356 32.9566 187.992 32.6686 188.616 32.0926C189.264 31.5166 189.864 30.7966 190.416 29.9326C190.992 29.0446 191.484 28.1326 191.892 27.1966L192.432 27.4846C191.472 29.5246 190.428 31.1446 189.3 32.3446C188.172 33.5206 186.96 34.1086 185.664 34.1086ZM185.916 25.3246C186.756 24.4846 187.572 23.5246 188.364 22.4446C189.156 21.3406 189.888 20.2006 190.56 19.0246C191.256 17.8486 191.868 16.7086 192.396 15.6046C192.924 14.5006 193.332 13.5166 193.62 12.6526C193.908 11.7646 194.052 11.0806 194.052 10.6006C194.052 10.3606 194.016 10.2046 193.944 10.1326C193.896 10.0606 193.848 10.0246 193.8 10.0246C193.608 10.0246 193.272 10.3366 192.792 10.9606C192.336 11.5606 191.796 12.3766 191.172 13.4086C190.548 14.4406 189.912 15.6166 189.264 16.9366C188.616 18.2566 187.992 19.6366 187.392 21.0766C186.816 22.5166 186.324 23.9326 185.916 25.3246ZM194.244 34.6846C193.212 34.6846 192.42 34.3846 191.868 33.7846C191.316 33.1846 191.04 32.2966 191.04 31.1206C191.04 30.0646 191.232 28.7686 191.616 27.2326C192.024 25.6726 192.528 24.0766 193.128 22.4446C192.888 22.3966 192.66 22.3606 192.444 22.3366C192.228 22.2886 192.024 22.2286 191.832 22.1566V21.5086C192.024 21.5326 192.252 21.5566 192.516 21.5806C192.78 21.6046 193.08 21.6286 193.416 21.6526C193.92 20.3566 194.46 19.1086 195.036 17.9086C195.612 16.6846 196.176 15.6046 196.728 14.6686C197.304 13.7086 197.844 12.9526 198.348 12.4006C198.876 11.8246 199.32 11.5366 199.68 11.5366C199.872 11.5366 200.04 11.6086 200.184 11.7526C200.352 11.8726 200.436 12.0646 200.436 12.3286C200.436 12.7366 200.184 13.4086 199.68 14.3446C199.176 15.2566 198.552 16.3486 197.808 17.6206C197.064 18.8926 196.344 20.2726 195.648 21.7606C195.864 21.7606 196.08 21.7606 196.296 21.7606C196.536 21.7606 196.764 21.7606 196.98 21.7606C197.772 21.7606 198.6 21.7486 199.464 21.7246C200.352 21.7006 201.24 21.6406 202.128 21.5446V22.1926C200.808 22.3366 199.62 22.4446 198.564 22.5166C197.532 22.5886 196.608 22.6246 195.792 22.6246C195.696 22.6246 195.6 22.6246 195.504 22.6246C195.432 22.6246 195.348 22.6246 195.252 22.6246C194.7 23.8966 194.232 25.2046 193.848 26.5486C193.464 27.8926 193.272 29.2006 193.272 30.4726C193.272 31.5046 193.428 32.2486 193.74 32.7046C194.052 33.1366 194.568 33.3526 195.288 33.3526C196.536 33.3526 197.76 32.8006 198.96 31.6966C200.16 30.5926 201.216 29.0926 202.128 27.1966L202.596 27.5566C202.02 28.9006 201.288 30.1126 200.4 31.1926C199.536 32.2726 198.576 33.1246 197.52 33.7486C196.464 34.3726 195.372 34.6846 194.244 34.6846ZM205.337 34.6126C203.873 34.6126 202.769 34.2046 202.025 33.3886C201.305 32.5966 200.945 31.6126 200.945 30.4366C200.945 29.3566 201.209 28.2166 201.737 27.0166C202.289 25.8166 203.009 24.6886 203.897 23.6326C204.809 22.5766 205.805 21.7246 206.885 21.0766C207.965 20.4046 209.033 20.0686 210.089 20.0686C210.641 20.0686 211.145 20.2126 211.601 20.5006C212.081 20.7886 212.321 21.3766 212.321 22.2646C212.321 23.1766 212.045 24.0406 211.493 24.8566C210.965 25.6486 210.257 26.3566 209.369 26.9806C208.505 27.6046 207.545 28.1206 206.489 28.5286C205.457 28.9126 204.425 29.1526 203.393 29.2486C203.345 29.4886 203.309 29.7166 203.285 29.9326C203.261 30.1486 203.249 30.3526 203.249 30.5446C203.249 30.9046 203.285 31.2646 203.357 31.6246C203.453 31.9846 203.609 32.3206 203.825 32.6326C204.041 32.9206 204.329 33.1486 204.689 33.3166C205.073 33.4846 205.541 33.5686 206.093 33.5686C207.125 33.5686 208.145 33.2806 209.153 32.7046C210.161 32.1046 211.097 31.3246 211.961 30.3646C212.825 29.4046 213.557 28.3486 214.157 27.1966L214.589 27.5206C213.941 28.9606 213.113 30.2086 212.105 31.2646C211.121 32.3206 210.041 33.1366 208.865 33.7126C207.713 34.3126 206.537 34.6126 205.337 34.6126ZM203.573 28.5646C204.221 28.3486 204.953 28.0366 205.769 27.6286C206.585 27.1966 207.365 26.6926 208.109 26.1166C208.877 25.5406 209.501 24.9046 209.981 24.2086C210.485 23.5126 210.737 22.7806 210.737 22.0126C210.737 21.7486 210.689 21.5446 210.593 21.4006C210.497 21.2566 210.293 21.1846 209.981 21.1846C209.405 21.1846 208.793 21.4126 208.145 21.8686C207.497 22.3006 206.873 22.8766 206.273 23.5966C205.673 24.3166 205.133 25.1086 204.653 25.9726C204.173 26.8366 203.813 27.7006 203.573 28.5646ZM219.666 33.9646C218.85 33.9646 218.202 33.7486 217.722 33.3166C217.266 32.8846 217.038 32.3206 217.038 31.6246C217.038 30.9046 217.206 30.1486 217.542 29.3566C217.878 28.5646 218.202 27.7846 218.514 27.0166C218.85 26.2246 219.018 25.5166 219.018 24.8926C219.018 24.1246 218.79 23.5606 218.334 23.2006C217.902 22.8166 217.458 22.4686 217.002 22.1566C216.45 23.5726 215.874 24.9166 215.274 26.1886C214.674 27.4606 214.182 28.4206 213.798 29.0686L213.474 28.4566C213.81 27.8326 214.242 26.9206 214.77 25.7206C215.322 24.5206 215.862 23.1526 216.39 21.6166C216.15 21.3766 216.03 21.0886 216.03 20.7526C216.03 20.0326 216.234 19.4446 216.642 18.9886C217.05 18.5326 217.35 18.3046 217.542 18.3046C217.806 18.3046 217.95 18.4246 217.974 18.6646C218.022 18.8806 218.046 19.0486 218.046 19.1686C218.046 19.2886 217.974 19.5286 217.83 19.8886C217.71 20.2246 217.65 20.4286 217.65 20.5006C217.65 20.8366 217.83 21.1486 218.189 21.4366C218.574 21.7006 219.006 22.0126 219.486 22.3726C219.966 22.7086 220.386 23.1286 220.746 23.6326C221.13 24.1126 221.322 24.7366 221.322 25.5046C221.322 26.2246 221.166 26.9566 220.854 27.7006C220.566 28.4446 220.266 29.1526 219.954 29.8246C219.666 30.4966 219.522 31.0846 219.522 31.5886C219.522 32.0206 219.63 32.3086 219.846 32.4526C220.062 32.5966 220.314 32.6686 220.602 32.6686C221.178 32.6686 221.766 32.4886 222.366 32.1286C222.99 31.7686 223.59 31.3126 224.166 30.7606C224.742 30.2086 225.258 29.6326 225.714 29.0326C226.17 28.4086 226.506 27.8326 226.722 27.3046L227.19 27.6646C226.734 28.6726 226.11 29.6686 225.318 30.6526C224.526 31.6126 223.638 32.4046 222.654 33.0286C221.694 33.6526 220.698 33.9646 219.666 33.9646Z" fill="black"/>
</svg>
